<?xml version="1.0" standalone="no"?>
<!DOCTYPE svg PUBLIC "-//W3C//DTD SVG 20010904//EN"
 "http://www.w3.org/TR/2001/REC-SVG-20010904/DTD/svg10.dtd">
<svg version="1.0" xmlns="http://www.w3.org/2000/svg"
 width="512.000000pt" height="512.000000pt" viewBox="0 0 512.000000 512.000000"
 preserveAspectRatio="xMidYMid meet">

<g transform="translate(0.000000,512.000000) scale(0.100000,-0.100000)"
fill="#FFFFFF" stroke="none">
<path d="M2325 5109 c-1081 -101 -1981 -870 -2245 -1919 -178 -709 -50 -1454
353 -2055 106 -157 285 -369 345 -406 62 -40 171 -16 203 43 45 85 31 134 -72
246 -752 817 -812 2020 -147 2910 93 124 306 337 430 430 822 615 1914 615
2736 0 192 -144 420 -394 551 -605 549 -885 420 -2039 -309 -2774 -63 -64
-151 -144 -195 -179 -444 -351 -1010 -531 -1551 -492 -340 24 -590 92 -903
246 -63 31 -126 56 -140 56 -44 0 -113 -41 -133 -80 -25 -48 -23 -109 5 -151
59 -88 475 -261 780 -323 398 -82 773 -73 1173 29 177 45 298 91 489 185 468
229 846 588 1104 1047 463 825 419 1875 -112 2668 -520 776 -1432 1210 -2362
1124z"/>
<path d="M2120 3771 c-19 -10 -45 -36 -57 -57 l-23 -39 0 -1115 0 -1115 23
-39 c40 -71 116 -93 192 -56 59 28 1347 1109 1364 1144 18 38 18 94 0 132 -17
35 -1305 1116 -1364 1144 -51 25 -91 25 -135 1z m675 -832 c245 -204 445 -374
445 -379 0 -8 -885 -750 -895 -750 -3 0 -5 338 -5 750 0 413 2 750 5 750 3 0
205 -167 450 -371z"/>
</g>
</svg>
